<svg height="483pt" viewBox="-4 0 483 483.07733" width="483pt" xmlns="http://www.w3.org/2000/svg"><path d="m185.09375 192.871094c-1.230469-2.132813-3.378906-3.578125-5.816406-3.921875-2.441406-.339844-4.902344.457031-6.671875 2.171875l-109.96875 109.679687 37.546875 65.039063 149.941406-40.414063c2.371094-.679687 4.296875-2.410156 5.21875-4.695312.925781-2.285157.742188-4.867188-.488281-7.003907zm0 0" fill="#bddbff"/><path d="m12.492188 350.753906c-4.953126 5.132813-5.910157 12.929688-2.34375 19.109375l3.953124 6.839844c3.566407 6.179687 10.796876 9.25 17.71875 7.527344l68.363282-18.398438-37.546875-65.03125zm0 0" fill="#bddbff"/><g fill="#3d9ae2"><path d="m242.375 276c8.207031-8.015625 11.476562-19.820312 8.5625-30.914062-2.914062-11.097657-11.558594-19.773438-22.644531-22.726563-5.511719-1.460937-11.316407-1.402344-16.800781.175781l-19.445313-33.679687c-2.476563-4.28125-6.796875-7.179688-11.699219-7.847657-4.902344-.664062-9.835937.972657-13.367187 4.441407l-160.246094 159.742187c-7.390625 7.722656-8.816406 19.386719-3.511719 28.664063l3.949219 6.847656c5.425781 9.269531 16.3125 13.847656 26.730469 11.25l30.457031-8.210937 50.398437 87.320312c6.628907 11.488281 21.3125 15.429688 32.800782 8.800781 11.488281-6.625 15.425781-21.3125 8.800781-32.800781l-44-76.246094 139.886719-37.703125h.113281c4.738281-1.355469 8.59375-4.816406 10.441406-9.386719 1.847657-4.570312 1.488281-9.738281-.980469-14.007812zm-18.21875-38.183594c4.796875 1.273438 8.722656 4.710938 10.621094 9.296875 1.894531 4.582031 1.546875 9.789063-.949219 14.078125l-13.855469-23.855468c1.398438-.015626 2.792969.152343 4.144532.496093zm-194.269531 138.648438c-3.460938.859375-7.074219-.675782-8.855469-3.761719l-3.945312-6.847656c-1.757813-3.039063-1.328126-6.863281 1.054687-9.441407l42.769531-42.636718 27.144532 47.023437zm112.597656 78.597656c1.453125 2.476562 1.464844 5.542969.035156 8.03125-1.429687 2.488281-4.082031 4.023438-6.953125 4.015625-2.871094-.003906-5.519531-1.550781-6.9375-4.046875l-48.289062-83.628906 16-4.304688zm-38.445313-98.589844-31.402343-54.402344 105.527343-105.199218 69.777344 120.800781zm0 0"/><path d="m435.972656 0h-184c-22.078125.0273438-39.972656 17.917969-40 40v80c.027344 22.082031 17.921875 39.972656 40 40h56v48c0 3.398438 2.144532 6.425781 5.351563 7.550781 3.207031 1.128907 6.773437.101563 8.898437-2.550781l42.398438-53h71.351562c22.082032-.027344 39.972656-17.917969 40-40v-80c-.027344-22.082031-17.917968-39.9726562-40-40zm24 120c0 13.253906-10.746094 24-24 24h-75.199218c-2.429688 0-4.730469 1.101562-6.246094 3l-30.554688 38.191406v-33.191406c0-4.417969-3.582031-8-8-8h-64c-13.253906 0-24-10.746094-24-24v-80c0-13.253906 10.746094-24 24-24h184c13.253906 0 24 10.746094 24 24zm0 0"/><path d="m259.972656 40h16v16h-16zm0 0"/><path d="m291.972656 40h136v16h-136zm0 0"/><path d="m259.972656 72h48v16h-48zm0 0"/><path d="m323.972656 72h16v16h-16zm0 0"/><path d="m259.972656 104h80v16h-80zm0 0"/><path d="m355.972656 72h72v16h-72zm0 0"/><path d="m355.972656 104h16v16h-16zm0 0"/><path d="m387.972656 104h40v16h-40zm0 0"/><path d="m219.972656 176h16v32h-16zm0 0"/><path d="m258.617188 274.925781 8-13.855469 27.710937 15.996094-7.996094 13.859375zm0 0"/><path d="m258.613281 221.070312 27.714844-16 8 13.859376-27.714844 15.996093zm0 0"/></g></svg>